<svg viewBox="0 0 24 24" xmlns="http://www.w3.org/2000/svg"><path d="M21 9c-.825 0-1.5.675-1.5 1.5v6c0 .825.675 1.5 1.5 1.5s1.5-.675 1.5-1.5v-6c0-.825-.675-1.5-1.5-1.5zM3 9c-.825 0-1.5.675-1.5 1.5v6c0 .825.675 1.5 1.5 1.5s1.5-.675 1.5-1.5v-6C4.5 9.675 3.825 9 3 9zm2.25 8.25A2.25 2.25 0 0 0 7.5 19.5v3c0 .825.675 1.5 1.5 1.5s1.5-.675 1.5-1.5v-3h3v3c0 .825.675 1.5 1.5 1.5s1.5-.675 1.5-1.5v-3a2.25 2.25 0 0 0 2.25-2.25V9H5.25v8.25zM18.708 7.5a6.746 6.746 0 0 0-3.038-4.913l.75-1.501A.75.75 0 0 0 15.08.415l-.753 1.507-.196-.078C13.46 1.62 12.744 1.5 12 1.5s-1.46.12-2.13.344l-.196.078L8.921.415a.75.75 0 0 0-1.341.671l.75 1.5A6.747 6.747 0 0 0 5.292 7.5v.75H18.75V7.5h-.042zM9.75 6a.75.75 0 0 1-.002-1.5h.004A.75.75 0 0 1 9.751 6H9.75zm4.5 0a.75.75 0 0 1-.002-1.5h.004a.75.75 0 0 1-.001 1.5h-.001z"/></svg>