<svg viewBox="0 0 100 100" xmlns="http://www.w3.org/2000/svg"><g fill="none" fill-rule="evenodd"><path d="M69.757 59.107c.159-.285.243-.581.243-.885C70 55.89 65.066 54 58.978 54c-6.087 0-11.022 1.89-11.022 4.222 0 .304.085.6.244.885a.422.422 0 0 0-.244.382v6.997c-1.713-.42-3.75-.664-5.934-.664-6.088 0-11.022 1.89-11.022 4.222 0 .304.084.6.243.885a.422.422 0 0 0-.243.382v16.89c0 .143.072.27.183.347C32.127 90.512 36.62 92 42.02 92c5.4 0 9.894-1.488 10.838-3.453a.421.421 0 0 0 .183-.347v-2.775c1.713.42 3.75.664 5.935.664 5.4 0 9.894-1.488 10.839-3.453a.421.421 0 0 0 .183-.347v-22.8c0-.169-.1-.314-.243-.382zm-27.735 8.404c5.15 0 9.326 1.134 9.326 2.533 0 1.4-4.175 2.534-9.326 2.534-5.15 0-9.326-1.135-9.326-2.534 0-1.399 4.175-2.533 9.326-2.533zm-9.326 4.784c1.952 1.185 5.399 1.972 9.326 1.972 3.927 0 7.374-.787 9.326-1.972v3.66c0 1.4-4.175 2.534-9.326 2.534-5.15 0-9.326-1.135-9.326-2.534v-3.66zm0 5.911c1.952 1.185 5.399 1.972 9.326 1.972 3.927 0 7.374-.787 9.326-1.972v3.66c0 1.4-4.175 2.534-9.326 2.534-5.15 0-9.326-1.134-9.326-2.534v-3.66zm9.326 12.105c-5.15 0-9.326-1.134-9.326-2.533v-3.66c1.952 1.184 5.399 1.971 9.326 1.971 3.927 0 7.374-.787 9.326-1.971v3.66c0 1.4-4.175 2.533-9.326 2.533zm26.283-8.444c0 1.399-4.175 2.533-9.326 2.533-2.255 0-4.322-.217-5.935-.579v-4.307c1.713.42 3.75.664 5.935.664 3.927 0 7.374-.787 9.326-1.972v3.66zm0-5.911c0 1.399-4.175 2.533-9.326 2.533-2.255 0-4.322-.217-5.935-.579v-4.308c1.713.42 3.75.665 5.935.665 3.927 0 7.374-.787 9.326-1.972v3.66zm0-5.911c0 1.399-4.175 2.533-9.326 2.533-2.255 0-4.322-.217-5.935-.58v-.687c0-.168-.1-.314-.243-.381.159-.286.243-.582.243-.885 0-1.198-1.301-2.279-3.391-3.047v-.614c1.952 1.185 5.399 1.972 9.326 1.972 3.927 0 7.374-.787 9.326-1.972v3.66zm0-5.912c0 1.4-4.175 2.534-9.326 2.534s-9.326-1.134-9.326-2.534v-3.66c1.952 1.185 5.399 1.972 9.326 1.972s7.374-.787 9.326-1.972v3.66zm-9.326-3.377c-5.15 0-9.326-1.135-9.326-2.534 0-1.399 4.175-2.533 9.326-2.533s9.326 1.134 9.326 2.533c0 1.4-4.175 2.534-9.326 2.534z" fill="#000" fill-rule="nonzero"/><g transform="translate(5 8)"><circle cx="17" cy="17" r="17" stroke="#000" stroke-width="2"/><path d="M27.974 8.372l-8.342 16.963c-1.398 3.524-4.728 3.582-6.307 0L5.038 8.53a.368.368 0 0 1 .33-.53h5.683c.14.002.266.081.327.206l6.588 13.287a.95.95 0 0 0 1.705 0L26.23 8.205A.368.368 0 0 1 26.56 8h1.183a.257.257 0 0 1 .231.372z" fill="#000" fill-rule="nonzero"/></g><g transform="translate(67 25)"><circle cx="15" cy="15" r="15" stroke="#000" stroke-width="2"/><path fill="#000" fill-rule="nonzero" d="M17.404 13.598h4.852L8.553 26.4l4.395-8.602H8.4L13.763 6H22.8z"/></g></g></svg>