<svg width="24px" height="24px" viewBox="0 0 24 24" version="1.1" xmlns="http://www.w3.org/2000/svg" xmlns:xlink="http://www.w3.org/1999/xlink">
    <g id="Page-1" stroke="none" stroke-width="1" fill="none" fill-rule="evenodd">
        <path d="M23.9899469,6.60368017 C24.0434796,5.45239388 23.8828813,4.29843017 23.5161819,3.20336949 C22.9273214,1.80576147 21.7442473,0.745507117 20.2935093,0.311766699 C19.3459793,0.0761546199 18.371683,-0.0282643696 17.39471,0.00654196026 L6.60518079,0.00654196026 C5.63088444,-0.0282643696 4.65391144,0.0761546199 3.70638146,0.311766699 C2.25564348,0.745507117 1.07256933,1.80576147 0.483708892,3.20336949 C0.119686076,4.29843017 -0.043588863,5.44971647 0.00994390395,6.60368017 L0.00994390395,17.3963198 C-0.0409122247,18.5502835 0.119686076,19.7015698 0.483708892,20.7966305 C1.07256933,22.1942385 2.25564348,23.2544929 3.70638146,23.6882333 C4.65391144,23.9238454 5.6282078,24.0282644 6.60518079,23.993458 L17.39471,23.993458 C18.3690063,24.0282644 19.3459793,23.9238454 20.2935093,23.6882333 C21.7442473,23.2544929 22.9273214,22.1942385 23.5161819,20.7966305 C23.8802047,19.7015698 24.0434796,18.5502835 23.9899469,17.3963198 L23.9899469,6.60368017 Z M4.76633025,16.4993875 L3.87500968,16.4993875 L3.87500968,11.1713416 L4.76633025,11.1713416 L4.76633025,16.4993875 Z M4.31933164,10.2717319 C4.01419487,10.2690544 3.76794415,10.0200553 3.77062078,9.71215317 C3.77329742,9.40692843 4.02222479,9.16060671 4.3300382,9.16328412 C4.63249833,9.16596153 4.87874906,9.41228325 4.87874906,9.71750799 C4.87607242,10.0254101 4.62714505,10.2744093 4.31933164,10.2717319 Z M9.67528498,16.633258 C7.32251987,16.633258 5.83966223,14.9518445 5.83966223,12.2771119 C5.83966223,9.60237936 7.31984323,7.91561106 9.67528498,7.91561106 C12.0307267,7.91561106 13.516261,9.60237936 13.516261,12.2771119 C13.516261,14.9518445 12.03608,16.633258 9.67528498,16.633258 Z M17.4428895,16.633258 C15.6763082,16.633258 14.434348,15.6586807 14.3460189,14.2021697 L15.1490104,14.2021697 C15.2373395,15.2169081 16.1902227,15.9050025 17.5151587,15.9050025 C18.7812086,15.9050025 19.688589,15.2142307 19.688589,14.2664276 C19.688589,13.4765916 19.1425548,13.0080449 17.8898881,12.6921105 L16.8406458,12.4216921 C15.277489,12.022758 14.5815631,11.3614377 14.5815631,10.2476352 C14.5815631,8.88215607 15.8101401,7.91025624 17.4723325,7.91025624 C19.1211417,7.91025624 20.3202757,8.88483348 20.3711318,10.2235385 L19.5681403,10.2235385 C19.4931944,9.27038052 18.6473767,8.63583435 17.4482427,8.63583435 C16.2785518,8.63583435 15.411321,9.28644498 15.411321,10.2155062 C15.411321,10.9410843 15.9359421,11.3694699 17.1779023,11.6854043 L18.0933126,11.9210164 C19.7903013,12.349402 20.5049682,13.0000126 20.5049682,14.1753956 C20.5076404,15.6613582 19.311183,16.633258 17.4428895,16.633258 L17.4428895,16.633258 Z M9.67528498,8.65725363 C7.82572788,8.65725363 6.6613902,10.0575391 6.6613902,12.2771119 C6.6613902,14.4966848 7.82572788,15.888938 9.67528498,15.888938 C11.5248421,15.888938 12.6972097,14.4886526 12.6972097,12.2771119 C12.6972097,10.0655713 11.5275187,8.65725363 9.67528498,8.65725363 Z" id="Shape" fill="#000000" fill-rule="nonzero"></path>
    </g>
</svg>