<?xml version="1.0" encoding="UTF-8" standalone="no"?>
<!DOCTYPE svg PUBLIC "-//W3C//DTD SVG 1.1//EN" "http://www.w3.org/Graphics/SVG/1.1/DTD/svg11.dtd">
<svg xmlns="http://www.w3.org/2000/svg" version="1.1" viewBox="0 0 1804 652">
<path fill="#ffffff" d="
  M 223.76 201.81
  A 0.30 0.30 -13.2 0 0 223.49 202.24
  L 343.07 451.20
  Q 343.42 451.94 343.77 451.20
  Q 371.27 393.16 399.19 335.26
  Q 438.24 254.29 477.22 173.29
  Q 482.63 162.06 483.48 160.83
  Q 487.89 154.46 495.18 152.32
  Q 498.82 151.25 513.91 151.25
  Q 524.61 151.25 535.61 151.25
  A 0.39 0.39 -77.1 0 1 535.96 151.81
  L 367.78 501.86
  A 0.81 0.79 -77.0 0 1 367.06 502.32
  L 319.71 502.49
  A 0.92 0.91 77.2 0 1 318.88 501.96
  L 150.82 151.96
  A 0.50 0.50 -12.7 0 1 151.27 151.25
  Q 192.18 151.25 232.50 151.25
  Q 249.78 151.25 252.49 151.47
  Q 272.30 153.04 288.94 163.81
  Q 303.28 173.10 312.28 187.70
  Q 314.39 191.12 321.36 205.49
  Q 350.54 265.59 379.64 326.03
  A 1.11 1.11 -90.0 0 1 379.64 326.97
  L 356.09 376.09
  Q 355.63 377.05 355.16 376.09
  Q 317.68 298.49 280.38 221.19
  Q 275.33 210.73 272.19 207.77
  Q 265.84 201.78 255.50 201.75
  Q 239.53 201.70 223.76 201.81
  Z"
/>
<path fill="#ffffff" d="
  M 1159.32 286.81
  Q 1159.31 287.36 1159.68 286.95
  Q 1167.36 278.39 1178.29 274.74
  Q 1201.47 266.98 1223.35 277.61
  Q 1246.32 288.76 1253.00 312.75
  Q 1254.57 318.38 1255.29 325.54
  Q 1255.74 330.00 1255.81 338.48
  Q 1256.16 381.64 1256.00 425.17
  A 0.58 0.58 89.8 0 1 1255.42 425.75
  L 1220.52 425.75
  A 0.71 0.70 0.0 0 1 1219.81 425.05
  Q 1219.70 386.34 1219.75 347.25
  Q 1219.76 337.49 1217.40 328.03
  Q 1212.17 307.09 1190.25 306.80
  Q 1177.61 306.64 1169.40 314.63
  Q 1164.88 319.03 1162.52 325.70
  Q 1160.37 331.81 1160.00 338.75
  Q 1159.52 347.77 1159.52 349.50
  Q 1159.50 378.51 1159.50 407.52
  Q 1159.50 414.69 1158.04 417.76
  Q 1156.24 421.51 1152.58 423.67
  Q 1149.90 425.24 1145.10 425.50
  Q 1135.32 426.03 1124.45 425.70
  A 0.98 0.98 0.9 0 1 1123.50 424.72
  L 1123.50 227.06
  A 0.56 0.56 89.8 0 1 1124.06 226.50
  Q 1134.12 226.50 1144.00 226.67
  Q 1155.88 226.86 1158.67 235.76
  Q 1159.50 238.41 1159.53 250.82
  Q 1159.58 268.86 1159.32 286.81
  Z"
/>
<path fill="#ffffff" d="
  M 1464.89 256.13
  Q 1458.63 251.97 1456.46 245.22
  Q 1455.50 242.24 1455.50 236.16
  Q 1455.50 231.58 1455.50 227.00
  A 0.50 0.50 0.0 0 1 1456.00 226.50
  L 1491.00 226.50
  A 0.50 0.50 0.0 0 1 1491.50 227.00
  L 1491.50 258.69
  A 0.56 0.56 89.8 0 1 1490.94 259.25
  Q 1482.75 259.25 1474.75 259.16
  Q 1469.35 259.10 1464.89 256.13
  Z"
/>
<path fill="#ffffff" d="
  M 800.01 408.99
  Q 778.24 388.63 775.13 358.74
  Q 771.94 328.04 789.82 303.28
  Q 802.82 285.29 823.43 276.92
  Q 841.92 269.43 861.74 272.32
  Q 883.67 275.52 900.81 289.44
  Q 922.02 306.67 927.83 333.45
  A 0.62 0.62 -18.6 0 1 927.48 334.15
  L 853.00 368.39
  A 0.78 0.78 -24.3 0 1 851.96 368.00
  L 839.34 340.45
  A 1.05 1.04 65.5 0 1 839.85 339.07
  L 882.83 319.44
  A 0.45 0.45 -34.9 0 0 882.96 318.71
  Q 864.51 300.61 839.00 308.75
  Q 831.47 311.15 824.93 316.48
  Q 818.51 321.72 814.60 328.40
  Q 806.88 341.57 810.03 357.74
  Q 813.07 373.37 824.91 383.83
  Q 842.24 399.17 862.86 393.89
  Q 872.76 391.36 880.73 385.24
  Q 889.50 378.51 894.19 368.44
  Q 895.60 365.41 897.94 364.37
  Q 914.51 357.02 931.01 349.49
  A 0.35 0.35 -13.5 0 1 931.50 349.79
  Q 932.30 362.01 928.57 373.69
  Q 918.57 404.99 891.19 420.44
  Q 869.99 432.40 844.00 429.50
  Q 818.95 426.71 800.01 408.99
  Z"
/>
<path fill="#ffffff" d="
  M 975.69 410.06
  Q 956.15 392.75 950.95 367.39
  Q 948.99 357.79 949.36 347.51
  Q 950.66 311.74 978.56 289.06
  Q 997.14 273.96 1021.51 271.83
  Q 1031.70 270.94 1041.44 272.61
  Q 1060.30 275.83 1076.08 287.42
  Q 1095.75 301.87 1103.03 325.33
  A 0.52 0.52 -8.3 0 1 1102.53 326.00
  L 1063.26 326.00
  A 1.34 1.33 74.6 0 1 1062.11 325.34
  Q 1054.69 312.66 1040.25 308.25
  Q 1033.45 306.17 1025.50 306.73
  Q 1018.04 307.26 1011.28 309.98
  Q 993.27 317.21 987.25 336.75
  Q 983.60 348.60 986.70 361.45
  Q 991.56 381.58 1008.43 390.15
  Q 1017.36 394.68 1027.63 395.13
  Q 1048.93 396.06 1062.27 377.47
  A 1.00 0.96 -71.1 0 1 1063.06 377.06
  L 1102.39 377.00
  A 0.63 0.63 -80.2 0 1 1102.98 377.84
  Q 1092.88 406.34 1067.03 420.55
  Q 1053.61 427.92 1038.71 429.83
  Q 1028.98 431.08 1018.78 429.74
  Q 994.25 426.51 975.69 410.06
  Z"
/>
<path fill="#ffffff" d="
  M 1394.94 406.33
  Q 1394.94 404.85 1394.07 406.05
  Q 1391.70 409.34 1388.87 412.20
  Q 1386.30 414.79 1382.72 417.33
  Q 1356.37 436.02 1325.59 428.20
  Q 1315.48 425.64 1307.10 420.78
  Q 1291.21 411.58 1281.81 395.19
  Q 1273.82 381.24 1271.44 365.45
  Q 1269.97 355.75 1270.41 345.50
  Q 1271.88 311.47 1297.94 288.69
  Q 1316.75 272.24 1342.75 271.66
  Q 1375.04 270.94 1394.24 296.09
  Q 1395.00 297.09 1395.00 295.83
  Q 1395.00 293.20 1395.00 290.61
  Q 1395.00 287.51 1395.75 285.51
  Q 1397.82 280.01 1402.75 277.73
  Q 1405.97 276.25 1414.46 276.25
  Q 1420.66 276.25 1427.15 276.25
  A 0.85 0.85 90.0 0 1 1428.00 277.10
  L 1428.00 425.23
  A 0.52 0.52 0.0 0 1 1427.48 425.75
  L 1395.81 425.75
  A 0.83 0.82 89.6 0 1 1394.99 424.93
  L 1394.94 406.33
  Z
  M 1329.09 390.08
  Q 1339.74 396.01 1352.25 395.25
  Q 1380.08 393.56 1390.00 369.67
  Q 1393.12 362.14 1393.66 354.52
  Q 1394.23 346.62 1392.23 338.76
  Q 1388.09 322.51 1375.29 313.93
  Q 1367.16 308.48 1356.72 307.01
  Q 1342.78 305.05 1330.25 311.25
  Q 1312.44 320.05 1307.74 340.75
  Q 1303.03 361.50 1314.26 376.89
  Q 1320.31 385.18 1329.09 390.08
  Z"
/>
<path fill="#ffffff" d="
  M 1556.28 289.42
  Q 1556.37 290.10 1556.80 289.57
  Q 1567.58 276.50 1584.25 273.00
  Q 1597.75 270.17 1609.57 272.90
  Q 1623.28 276.07 1633.88 284.49
  Q 1641.99 290.93 1646.88 299.52
  Q 1652.03 308.58 1653.75 319.50
  Q 1655.71 331.91 1655.66 342.75
  Q 1655.50 383.62 1655.50 425.19
  A 0.56 0.56 89.8 0 1 1654.94 425.75
  L 1620.17 425.75
  A 0.67 0.67 0.1 0 1 1619.50 425.08
  Q 1619.50 393.63 1619.50 362.24
  Q 1619.50 344.90 1619.39 343.26
  Q 1618.97 336.89 1617.59 330.65
  Q 1615.99 323.36 1613.04 318.89
  Q 1606.31 308.71 1593.25 307.00
  Q 1583.92 305.78 1575.09 310.61
  Q 1564.29 316.51 1561.31 328.31
  Q 1559.00 337.50 1559.00 347.75
  Q 1559.00 374.70 1559.00 401.66
  Q 1559.00 409.89 1557.55 413.65
  Q 1554.92 420.51 1548.27 423.66
  Q 1544.28 425.56 1536.92 425.74
  Q 1530.30 425.90 1523.68 425.59
  A 0.53 0.53 1.7 0 1 1523.18 425.06
  L 1523.00 277.23
  A 0.98 0.98 0.0 0 1 1523.98 276.25
  Q 1529.94 276.25 1536.00 276.25
  Q 1544.77 276.25 1547.86 277.45
  Q 1555.13 280.26 1556.28 289.42
  Z"
/>
<path fill="#ffffff" d="
  M 699.60 371.84
  Q 700.03 373.05 700.46 371.84
  Q 714.20 333.17 727.53 294.68
  Q 734.08 275.80 754.50 276.11
  Q 764.00 276.25 773.78 276.25
  A 0.48 0.48 -78.8 0 1 774.22 276.91
  L 714.40 424.87
  A 1.42 1.42 -78.9 0 1 713.09 425.75
  L 686.55 425.75
  A 0.94 0.94 -11.2 0 1 685.68 425.17
  L 625.75 276.78
  A 0.35 0.34 78.3 0 1 626.06 276.30
  Q 636.08 276.10 646.10 276.33
  Q 653.65 276.50 657.65 278.13
  Q 663.36 280.46 667.25 285.20
  Q 669.82 288.33 672.40 295.55
  Q 686.13 333.94 699.60 371.84
  Z"
/>
<path fill="#ffffff" d="
  M 1458.72 282.46
  Q 1463.73 276.09 1472.00 276.16
  Q 1481.25 276.25 1490.84 276.25
  A 0.66 0.66 -0.1 0 1 1491.50 276.91
  L 1491.50 425.25
  A 0.50 0.50 0.0 0 1 1491.00 425.75
  L 1456.38 425.75
  A 0.88 0.88 -0.1 0 1 1455.50 424.87
  Q 1455.50 357.88 1455.50 290.50
  Q 1455.50 286.56 1458.72 282.46
  Z"
/>
</svg>
