<svg viewBox="0 0 24 24" xmlns="http://www.w3.org/2000/svg"><path d="M10.798 5.505a.238.238 0 0 0-.208.14c-.04.085-.078.128-.114.128-.045.009-.067-.014-.067-.067 0-.107.085-.174.255-.201h.134zm1.167.187c-.035.01-.087-.02-.154-.087a.221.221 0 0 0-.235-.06c.215-.098.358-.09.43.027.026.053.013.094-.04.12zm-4.71 5.719c-.035-.01-.062.004-.08.04a1.091 1.091 0 0 0-.06.167c-.023.076-.047.136-.074.181s-.072.103-.134.174c-.09.098-.094.152-.014.16.036.01.092-.021.168-.093s.132-.152.168-.24c.009-.028.018-.059.027-.095a.415.415 0 0 1 .027-.08.288.288 0 0 0 .027-.114v-.04l-.014-.034-.04-.026zm11.473 4.807c0-.16-.246-.348-.738-.562.035-.134.069-.257.1-.368s.054-.228.067-.349a4.08 4.08 0 0 1 .04-.287c.014-.072.016-.172.007-.302s-.013-.216-.013-.26a1.95 1.95 0 0 0-.047-.296 7.234 7.234 0 0 1-.054-.274 9.63 9.63 0 0 0-.067-.335 59.82 59.82 0 0 1-.074-.355c-.089-.428-.3-.888-.63-1.38-.331-.49-.653-.825-.966-1.004.214.179.47.55.765 1.112.778 1.446 1.02 2.687.724 3.723-.098.357-.322.544-.67.562-.278.036-.45-.047-.517-.247-.067-.201-.103-.574-.108-1.119a6.42 6.42 0 0 0-.154-1.433c-.08-.348-.168-.656-.262-.924s-.18-.47-.261-.609a4.073 4.073 0 0 0-.208-.328 1.343 1.343 0 0 0-.175-.2 6.32 6.32 0 0 1-.1-.095 8.616 8.616 0 0 0-.416-1.379c-.152-.366-.284-.616-.396-.75a3.714 3.714 0 0 1-.315-.442 1.546 1.546 0 0 1-.202-.536c-.036-.187-.009-.426.08-.716.09-.29.11-.511.061-.663-.05-.152-.248-.263-.597-.335-.134-.027-.333-.107-.597-.24-.264-.135-.423-.206-.476-.215-.072-.009-.121-.125-.148-.348s.009-.451.107-.683.26-.353.483-.362c.331-.027.56.107.685.402.125.295.143.553.053.777-.098.17-.107.288-.026.355.08.067.214.069.402.006.116-.035.175-.196.175-.482v-.495a2.985 2.985 0 0 0-.182-.67 1.066 1.066 0 0 0-.281-.408 1.227 1.227 0 0 0-.316-.201 1.889 1.889 0 0 0-.362-.1c-.957.07-1.355.669-1.194 1.794 0 .134-.005.2-.014.2-.08-.08-.212-.127-.395-.14a2 2 0 0 0-.443.007c-.112.018-.181-.005-.208-.067.009-.51-.063-.91-.215-1.206-.152-.294-.353-.446-.604-.455-.241-.009-.427.114-.557.368-.13.255-.203.52-.221.797-.009.134.007.3.047.496s.098.364.174.502c.076.138.146.199.208.18a.364.364 0 0 0 .215-.187c.036-.08.005-.116-.094-.107-.062 0-.132-.065-.208-.194s-.118-.279-.127-.449c-.01-.196.031-.361.12-.495s.242-.197.457-.188c.152 0 .272.094.362.282.09.187.132.361.127.522s-.01.259-.02.294c-.197.134-.335.264-.416.389a1.116 1.116 0 0 1-.369.315 4.67 4.67 0 0 0-.275.167.761.761 0 0 0-.208.362c-.022.116.011.196.1.24.126.072.238.159.336.262.099.102.17.187.215.254a.528.528 0 0 0 .248.174c.121.05.28.078.477.087.42.018.876-.049 1.368-.2.018-.01.121-.04.309-.094s.342-.1.463-.14c.12-.041.252-.1.396-.175s.237-.154.281-.234c.08-.125.17-.161.269-.108.044.027.074.065.087.114s0 .103-.04.161-.114.1-.222.127c-.179.054-.431.15-.758.288s-.53.226-.61.261c-.394.17-.707.273-.94.308-.223.045-.577.036-1.06-.026-.09-.018-.13-.01-.12.026.009.036.085.12.228.255.223.205.523.303.899.294.152-.009.313-.04.483-.093.17-.054.33-.116.483-.188s.302-.15.45-.234c.147-.085.281-.16.402-.228s.23-.12.329-.16.176-.052.234-.034c.059.018.097.067.115.147a.164.164 0 0 1-.014.06c-.009.023-.027.045-.054.067a1.047 1.047 0 0 1-.194.128c-.05.026-.09.047-.12.06s-.077.036-.135.067-.1.051-.128.06c-.25.125-.552.322-.905.59-.354.267-.651.46-.893.575s-.46.12-.657.014c-.188-.099-.47-.424-.845-.978-.197-.277-.309-.375-.336-.295a.469.469 0 0 0-.013.134c0 .224-.067.476-.202.757a8.566 8.566 0 0 1-.395.743 2.34 2.34 0 0 0-.282.777c-.058.304-.007.585.154.844-.206.053-.485.455-.838 1.205-.354.75-.566 1.38-.638 1.888-.018.161-.024.469-.02.924.005.456-.02.719-.074.79-.071.215-.201.228-.389.04-.286-.276-.447-.696-.483-1.258-.018-.25 0-.5.054-.75.036-.17.031-.25-.014-.241-.018.009-.035.031-.053.067-.322.58-.278 1.321.134 2.223.045.107.156.232.335.375.18.143.287.232.322.268.18.205.644.609 1.396 1.212.751.602 1.167.944 1.248 1.024a.736.736 0 0 1 .235.509.828.828 0 0 1-.188.576c-.139.178-.342.281-.61.308.07.134.2.332.388.596.188.263.313.504.376.723.063.219.094.533.094.944.411-.214.443-.625.094-1.232a1.175 1.175 0 0 0-.141-.214 5.813 5.813 0 0 1-.127-.161c-.027-.036-.036-.063-.027-.08.027-.045.085-.087.174-.128.09-.04.179-.029.268.034.412.464 1.154.625 2.228.482 1.19-.134 1.981-.522 2.375-1.165.206-.34.358-.473.456-.402.107.054.152.286.134.697-.009.223-.112.633-.308 1.232-.08.205-.108.372-.08.502.026.13.133.198.321.207.027-.17.092-.513.195-1.03.103-.519.163-.92.18-1.206.019-.188-.01-.516-.086-.984a7.145 7.145 0 0 1-.101-1.3c.009-.397.112-.711.309-.944.134-.16.362-.24.684-.24a.757.757 0 0 1 .463-.71c.3-.143.624-.19.973-.141.349.05.617.15.805.301zM10.3 5.143a.7.7 0 0 0-.033-.401c-.05-.116-.101-.183-.155-.201-.08-.018-.12.013-.12.093.017.045.04.072.067.08.09 0 .12.068.094.202-.027.178.009.268.107.268.027 0 .04-.014.04-.04zm5.622 2.639c-.018-.072-.047-.123-.087-.154s-.098-.054-.174-.067-.141-.038-.195-.074a.561.561 0 0 1-.127-.107 3.962 3.962 0 0 1-.168-.194.275.275 0 0 0-.054-.054c-.009-.004-.027.002-.053.02-.126.143-.094.337.093.583s.363.386.524.422c.08.008.145-.027.194-.108a.37.37 0 0 0 .047-.267zm-2.388-2.853a.505.505 0 0 0-.067-.261.502.502 0 0 0-.148-.167c-.053-.036-.094-.05-.12-.04-.054 0-.09.008-.108.026-.018.018-.018.036 0 .054.018.018.04.031.067.04.125.036.206.174.242.415 0 .027.036.018.107-.027.018-.018.027-.031.027-.04zm.724-3.12c0-.018-.01-.04-.033-.067a.512.512 0 0 0-.12-.094 4.598 4.598 0 0 1-.128-.08c-.134-.134-.242-.201-.322-.201-.08.009-.132.042-.155.1a.292.292 0 0 0-.013.174.303.303 0 0 1-.007.168.43.43 0 0 1-.08.14.662.662 0 0 0-.08.12c-.01.023.004.061.04.115.035.027.071.027.107 0s.085-.067.147-.12.13-.095.202-.121c.009-.01.049-.014.12-.014.072 0 .14-.009.202-.026s.103-.05.12-.094zm7.582 17.958c.179.107.317.216.416.328.098.111.152.219.16.321s-.002.203-.033.302a.704.704 0 0 1-.208.294 3.896 3.896 0 0 1-.315.261 3.45 3.45 0 0 1-.403.248 15.38 15.38 0 0 1-.852.429c-.17.08-.29.138-.362.174-.34.17-.722.42-1.147.75s-.763.616-1.013.857c-.152.143-.457.23-.913.26-.456.032-.854-.033-1.194-.193-.161-.08-.293-.186-.396-.315s-.176-.243-.221-.341c-.045-.099-.143-.186-.295-.262-.152-.075-.363-.118-.631-.127a83.632 83.632 0 0 0-1.744-.013c-.17 0-.425.006-.765.02-.34.013-.6.024-.778.033-.394.01-.75.076-1.067.201-.318.125-.557.26-.718.402-.161.143-.356.27-.584.382a1.49 1.49 0 0 1-.718.154c-.259-.01-.755-.148-1.489-.415a13.815 13.815 0 0 0-1.959-.576c-.17-.036-.398-.078-.684-.128-.287-.049-.51-.089-.671-.12a6.866 6.866 0 0 1-.53-.127 1.469 1.469 0 0 1-.45-.194.658.658 0 0 1-.228-.262c-.09-.205-.058-.502.094-.89.152-.389.233-.632.242-.73a2.072 2.072 0 0 0-.054-.536c-.045-.214-.09-.404-.134-.569s-.065-.328-.06-.489c.004-.16.05-.28.14-.361.126-.107.38-.17.765-.188.385-.018.653-.071.805-.16.269-.161.456-.317.564-.47.107-.15.16-.379.16-.682.189.652.046 1.125-.429 1.42-.286.178-.657.245-1.113.2-.304-.027-.497.018-.577.134-.117.134-.094.389.067.764.018.053.054.133.107.24.054.108.092.188.114.242s.043.13.06.227c.019.098.023.197.014.295 0 .134-.076.353-.228.656s-.215.518-.188.643c.027.152.192.268.497.348.178.054.556.136 1.133.248s1.022.203 1.335.274c.215.054.546.152.993.295.448.143.817.246 1.107.308s.54.08.745.054c.385-.054.673-.179.866-.375.192-.197.295-.411.308-.643.014-.232-.02-.493-.1-.784s-.166-.522-.255-.696-.18-.337-.269-.489C7.676 18.7 6.92 17.62 6.491 17.156c-.609-.661-1.114-.84-1.517-.536-.098.08-.165.013-.2-.201-.028-.143-.037-.313-.028-.509.01-.259.054-.491.134-.696.081-.206.188-.416.323-.63.134-.214.232-.402.295-.562.071-.188.19-.51.355-.965.166-.455.298-.803.396-1.044s.233-.513.403-.817c.17-.304.344-.545.523-.723.984-1.277 1.539-2.147 1.664-2.612-.108-1-.18-2.383-.215-4.151-.018-.804.09-1.48.322-2.029.233-.549.707-1.015 1.422-1.4.35-.187.814-.28 1.396-.28.474-.01.948.05 1.422.18s.872.315 1.194.556c.51.375.92.917 1.228 1.627s.44 1.368.396 1.975c-.045.848.09 1.804.402 2.866.305 1.01.9 1.982 1.785 2.92.492.526.937 1.254 1.335 2.183.398.928.664 1.78.799 2.557.071.438.093.815.067 1.132-.027.317-.08.565-.161.743-.08.179-.17.277-.269.295-.09.018-.194.102-.315.254-.12.152-.242.31-.362.476-.121.165-.302.314-.544.448a1.562 1.562 0 0 1-.818.188c-.161-.01-.302-.031-.423-.067s-.221-.096-.302-.181a2.54 2.54 0 0 1-.181-.208 1.81 1.81 0 0 1-.154-.274 5.176 5.176 0 0 1-.121-.261c-.197-.33-.38-.464-.55-.402-.17.063-.295.281-.376.656s-.05.808.094 1.3c.179.624.183 1.495.013 2.61-.089.581-.009 1.03.242 1.347.25.316.577.464.98.441.402-.022.782-.18 1.14-.475.528-.437.928-.734 1.2-.89s.737-.346 1.39-.57c.474-.16.818-.323 1.033-.488.215-.166.297-.32.248-.462s-.16-.27-.335-.382a3.265 3.265 0 0 0-.691-.315c-.296-.098-.517-.312-.665-.643s-.214-.654-.2-.97c.013-.318.082-.53.207-.637.01.277.045.53.107.757s.128.408.195.542c.067.134.159.261.275.382.116.12.21.205.282.254.071.05.168.108.288.175.121.067.195.109.222.127z"/></svg>