<svg viewBox="0 0 24 24" xmlns="http://www.w3.org/2000/svg"><path d="M13.209 7.962v-.199l-.614.043c-.174.01-.305.048-.394.11a.304.304 0 0 0-.13.263c0 .11.042.195.13.26a.571.571 0 0 0 .349.096c.094 0 .18-.013.26-.043.08-.03.15-.067.209-.118a.53.53 0 0 0 .19-.413zM12 0C5.304 0 0 5.303 0 12s5.304 12 12 12c6.697 0 12-5.303 12-12S18.697 0 12 0zm2.33 7.112c.055-.158.136-.295.24-.41.105-.112.228-.2.373-.263s.308-.09.487-.09c.161 0 .309.023.437.072.132.048.241.112.335.195a.95.95 0 0 1 .223.284.98.98 0 0 1 .096.346h-.482a.551.551 0 0 0-.188-.335.584.584 0 0 0-.18-.099.71.71 0 0 0-.511.027c-.083.04-.156.099-.215.174s-.104.166-.136.276a1.252 1.252 0 0 0-.048.36c0 .136.016.259.048.366s.077.198.14.274a.589.589 0 0 0 .216.171.63.63 0 0 0 .276.059c.166 0 .3-.038.402-.115a.546.546 0 0 0 .204-.34h.482a.966.966 0 0 1-.337.64.963.963 0 0 1-.333.177 1.303 1.303 0 0 1-.418.064c-.18 0-.343-.03-.49-.088a1.043 1.043 0 0 1-.375-.258 1.142 1.142 0 0 1-.242-.407 1.627 1.627 0 0 1-.085-.541 1.548 1.548 0 0 1 .08-.539zm-6.856-.729h.483v.429h.008a.645.645 0 0 1 .115-.19c.048-.057.102-.105.163-.145s.132-.07.204-.091a.85.85 0 0 1 .236-.032c.177 0 .327.043.447.126a.68.68 0 0 1 .26.364h.014a.729.729 0 0 1 .128-.204.805.805 0 0 1 .407-.252.994.994 0 0 1 .596.025.718.718 0 0 1 .426.431.99.99 0 0 1 .059.343V8.91h-.504v-1.6c0-.166-.043-.294-.129-.385-.086-.092-.206-.137-.364-.137a.565.565 0 0 0-.215.04.452.452 0 0 0-.166.115.535.535 0 0 0-.11.177.601.601 0 0 0-.04.225v1.57H9V7.27c0-.072-.01-.14-.035-.198a.412.412 0 0 0-.249-.25.584.584 0 0 0-.418.009.485.485 0 0 0-.169.12c-.048.051-.086.113-.11.182s-.067.145-.067.228v1.552h-.477v-2.53zm1.096 12.11c-2.213 0-3.599-1.538-3.599-3.99s1.386-3.996 3.6-3.996c2.213 0 3.593 1.544 3.593 3.996s-1.383 3.99-3.594 3.99zm4.095-9.585a1.088 1.088 0 0 1-.595-.021.765.765 0 0 1-.27-.153.7.7 0 0 1-.242-.544.61.61 0 0 1 .25-.52c.166-.126.404-.199.718-.217l.683-.04v-.196c0-.145-.046-.257-.14-.333a.61.61 0 0 0-.393-.115.726.726 0 0 0-.19.024.553.553 0 0 0-.156.073.418.418 0 0 0-.174.262h-.474a.657.657 0 0 1 .083-.31c.053-.097.123-.177.211-.247s.196-.123.317-.164c.12-.037.254-.058.396-.058.153 0 .292.018.418.058.126.04.233.094.322.167s.155.158.203.26a.79.79 0 0 1 .073.34V8.91h-.483v-.42h-.013a.704.704 0 0 1-.137.185.944.944 0 0 1-.185.142.79.79 0 0 1-.222.09zm3.184 9.585c-1.689 0-2.836-.884-2.913-2.272h1.098c.086.793.853 1.318 1.903 1.318 1.008 0 1.731-.525 1.731-1.243 0-.622-.44-.997-1.458-1.254l-.991-.247c-1.426-.354-2.074-1.002-2.074-2.069 0-1.313 1.147-2.224 2.779-2.224 1.597 0 2.709.917 2.752 2.235h-1.088c-.075-.793-.724-1.28-1.689-1.28-.959 0-1.624.492-1.624 1.205 0 .563.419.895 1.437 1.152l.836.21c1.592.385 2.246 1.012 2.246 2.138 0 1.436-1.134 2.331-2.946 2.331zM8.57 11.491c-1.516 0-2.462 1.163-2.462 3.01 0 1.843.948 3.003 2.462 3.003 1.512 0 2.463-1.163 2.463-3.004 0-1.846-.954-3.009-2.463-3.009z"/></svg>