<svg viewBox="0 0 100 100" xmlns="http://www.w3.org/2000/svg"><path d="M46.739 77h21.515c.054 3.462 1.586 6.556 5.746 9H41c3.32-2.242 5.754-4.967 5.739-9zm-13.31-39c.865 0 1.57.7 1.57 1.555v44.89C35 85.3 34.294 86 33.433 86H1.566C.705 86 0 85.3 0 84.445v-44.89C0 38.7.705 38 1.566 38h31.862zm-15.43 43a2.004 2.004 0 0 0-2 2c0 1.103.897 2 2 2s2-.897 2-2c0-1.104-.897-2-2-2zm14.875-40.225H2.344v38.474h30.53V40.775zM97.634 13c1.302 0 2.365 1.072 2.365 2.387V45H96.64V18.344c0-1.158-.938-2.113-2.094-2.113H18.442a2.11 2.11 0 0 0-2.094 2.113v13.794h-3.35v-16.75c0-1.316 1.063-2.388 2.366-2.388h82.27zm-.514 35c1.59 0 2.879 1.26 2.879 2.816v32.369c0 1.554-1.289 2.815-2.88 2.815H82.879c-1.59 0-2.88-1.26-2.88-2.815v-32.37c0-1.554 1.29-2.815 2.88-2.815zm-7.121 33.682c-.72 0-1.304.58-1.304 1.296s.584 1.295 1.304 1.295 1.304-.58 1.304-1.295-.584-1.296-1.304-1.296zm7.082-31.955H82.916c-.65 0-1.178.453-1.178 1.01v28.208c0 .557.528 1.01 1.178 1.01h14.165c.65 0 1.179-.453 1.179-1.01V50.737c0-.557-.529-1.01-1.179-1.01zM78 65v8H39v-8h39z"/></svg>